General
Complete name                            : Parama [1985] Hindi Bollywood VCDRip ShahBros.mp4
Format                                   : MPEG-4
Format profile                           : Base Media / Version 2
Codec ID                                 : mp42
File size                                : 842 MiB
Duration                                 : 2h 11mn
Overall bit rate mode                    : Variable
Overall bit rate                         : 899 Kbps
Encoded date                             : UTC 2012-05-05 11:19:27
Tagged date                              : UTC 2012-05-05 11:19:46
Writing application                      : mp4creator 1.4.4

Video
ID                                       : 1
Format                                   : AVC
Format/Info                              : Advanced Video Codec
Format profile                           : Baseline@L1.3
Format settings, CABAC                   : No
Format settings, ReFrames                : 2 frames
Codec ID                                 : avc1
Codec ID/Info                            : Advanced Video Coding
Duration                                 : 2h 11mn
Bit rate mode                            : Variable
Bit rate                                 : 771 Kbps
Width                                    : 720 pixels
Height                                   : 480 pixels
Display aspect ratio                     : 3:2
Frame rate mode                          : Constant
Frame rate                               : 30.000 fps
Standard                                 : NTSC
Color space                              : YUV
Chroma subsampling                       : 4:2:0
Bit depth                                : 8 bits
Scan type                                : Progressive
Bits/(Pixel*Frame)                       : 0.074
Stream size                              : 722 MiB (86%)
Language                                 : English
Encoded date                             : UTC 2012-05-05 11:19:27
Tagged date                              : UTC 2012-05-05 11:19:42

Audio
ID                                       : 2
Format                                   : AAC
Format/Info                              : Advanced Audio Codec
Format profile                           : LC
Codec ID                                 : 40
Duration                                 : 2h 10mn
Bit rate mode                            : Variable
Bit rate                                 : 126 Kbps
Maximum bit rate                         : 296 Kbps
Channel(s)                               : 2 channels
Channel positions                        : Front: L R
Sampling rate                            : 44.1 KHz
Compression mode                         : Lossy
Stream size                              : 118 MiB (14%)
Language                                 : English
Encoded date                             : UTC 2012-05-05 11:19:44
Tagged date                              : UTC 2012-05-05 11:19:46
Material_Duration                        : 7860512
Material_StreamSize                      : 123392830

Seed And Enjoy :)